<?xml version="1.0" standalone="no"?><!DOCTYPE svg PUBLIC "-//W3C//DTD SVG 1.1//EN" "http://www.w3.org/Graphics/SVG/1.1/DTD/svg11.dtd"><svg class="icon" width="300px" height="300.00px" viewBox="0 0 1024 1024" version="1.1" xmlns="http://www.w3.org/2000/svg"><path d="M487.100914 476.503555l19.690458-34.100656-255.799944-147.683551-19.690458 34.098609L487.100914 476.503555 487.100914 476.503555 487.100914 476.503555zM253.420757 274.163173l43.61945 25.185612 12.901845-22.349007 177.998997 102.769618-12.896728 22.343891 41.249473 23.818475 32.593326-56.449663L446.327278 310.269509l7.475252-12.93152-49.516764-28.586059-7.466042 12.930497-110.811782-63.967894L253.420757 274.163173 253.420757 274.163173 253.420757 274.163173zM408.034137 504.553401l53.051263 30.634718 19.687388-34.113959L213.17924 346.585623l-19.686365 34.104749 70.727855 40.830941-52.81181 47.913243c-4.298909 3.790326-8.18031 4.174066-11.649318 1.122567l-1.680269-2.542916-41.257659-23.818475-17.647939 30.577413 61.290925 35.391045c16.504906 9.523911 30.284747 10.153244 41.339524 1.909489l69.567425-63.330374 50.690496 29.267581-38.025035 65.852824c-13.223163 17.455557-8.218172 32.353872 15.033391 44.747133l69.547982 40.155559 18.332531-31.754215-47.149856-27.224038c-5.959735-2.38942-7.423063-5.310959-4.361331-8.785084L408.034137 504.553401 408.034137 504.553401 408.034137 504.553401zM751.85888 472.564849l-12.215206 21.164019L593.470523 409.334759 476.680587 611.616812c-4.078899 7.048533-9.039887 8.381901-14.860453 3.967358l-4.716418-2.726088-19.008936 32.929993 30.644951 17.684778c18.419512 11.673877 32.420387 8.263198 42.054815-10.209526l69.932746-121.136941 34.186613 19.733437c12.234649 6.040576 14.561647 14.682397 7.000438 25.996071l-50.931996 88.202854c-4.063549 7.052626-9.038864 8.381901-14.858406 3.962242l-23.579021-13.606903-19.008936 32.929993 45.974078 26.542516c20.6319 15.051811 35.894512 11.31879 45.7643-11.213389l71.294766-123.482359c15.028275-20.583804 11.261485-35.842323-11.313673-45.734624l-64.835657-37.434587 14.259772-24.695448L718.41621 533.217231l-86.887906 191.326537c-10.863419 18.809391-6.592139 32.252565 12.849656 40.342824l63.660902 36.758182 20.367887-35.285644-33.000602-19.062148c-9.111518-4.207835-11.390421-10.225899-6.861268-18.059308l5.114484-14.303774 24.75787 14.293541c17.499559 13.242606 30.505781 9.778714 39.013549-10.402931l59.069327-102.319363-38.897915-22.459524-48.211025 83.499739c-3.171226 5.494131-6.894014 6.487761-11.145851 2.966565l-7.073092-4.074805 52.03512-117.355825 35.361369 20.415982c16.261359 13.574157 30.444383 10.786671 42.550095-8.362458l22.373567-27.857465-41.258683-23.822568-7.792477 8.051373c-3.967358 5.03876-8.069793 5.806239-12.325723 2.293229l-18.860557-10.891048 12.225439-21.169135L751.85888 472.564849 751.85888 472.564849 751.85888 472.564849zM386.342092 164.806533c-0.76748-3.833305-0.613984-10.365068-2.461051-10.987239-5.666046-1.919722-12.091386-1.577938-18.21792-2.111081 2.25025 4.616134 4.510734 9.235338 7.498788 15.343453C378.632503 166.120458 382.484228 165.463496 386.342092 164.806533L386.342092 164.806533 386.342092 164.806533zM402.325112 180.01184c2.681062 1.420349 6.615675 0.451278 10.013051 0.5137-0.963954-2.619664-1.928932-5.240351-3.272533-8.886391-4.557806 0.197498-8.046257 0.336668-11.539824 0.479931C399.070998 174.854377 399.982764 178.782849 402.325112 180.01184L402.325112 180.01184 402.325112 180.01184zM262.618233 184.200232c1.137916 0.734734 6.939039-3.233648 8.497535-6.161327 4.092201-7.705496 6.209422-16.499789 10.642384-23.955598 5.010107-8.441253 11.525498-16.016789 17.792225-23.636327 0.868787-1.065262 4.3951-0.997724 6.05081-0.171915 4.327562 2.168386 8.352225 4.955872 12.387122 7.6574 6.261611 4.169973 12.446473 8.468882 18.659989 12.710486 1.420349-0.762363 2.844791-1.545192 4.261047-2.307555-1.381463-6.012947-2.758834-12.028964-4.140297-18.046005-0.99363 0.326435-1.99647 0.648776-3.004427 0.969071 3.108804-4.131087 6.209422-8.257058 9.400091-12.493545-10.719132-6.304589-24.806989 1.069355-31.600719-11.900028-0.344854-0.667196-3.65218 0.110517-5.547343 0.37453-3.733021 0.518816-7.445576 1.146103-11.17348 1.736551 0.589424 0.556679 1.170662 1.122567 1.75497 1.679245-6.501064 6.683213-12.243859 14.422478-19.681248 19.811208-11.995195 8.694009-15.934924 17.302061-10.906397 31.638581-2.408863 0.944512-4.629437 1.208525-5.906523 2.446725-2.801812 2.700505-7.777127 6.918573-7.095605 8.704243C254.66919 177.597861 258.603803 181.605128 262.618233 184.200232L262.618233 184.200232 262.618233 184.200232zM658.948817 322.42741c4.990664 4.078899 10.057053 8.215102 15.657608 11.31879 2.01489 1.113357 6.5246 0.326435 8.347109-1.313925 6.875594-6.204305 4.510734-12.94994-7.738241-19.821441-3.628644 0.384763-8.809643 0.724501-13.895475 1.563612-1.910513 0.317225-3.62762 1.804089-5.431709 2.75474C656.885831 318.795697 657.437393 321.18921 658.948817 322.42741L658.948817 322.42741 658.948817 322.42741zM834.582953 676.803463c-3.104711-0.239454-7.92653 3.329838-9.529027 6.458085-2.39863 4.696975-2.365884 10.589173-3.943822 15.789615-0.979304 3.238764-2.849908 6.261611-4.678556 9.159614-1.568728 2.471284-3.919263 4.462638-5.455245 6.966669-4.064572 6.573719-7.797593 13.362332-11.80793 19.980054-2.605338 4.298909-5.829775 8.247848-8.16189 12.671601-5.301749 10.032494-10.219759 20.276812-15.296381 30.435173-1.01205-0.25071-2.039449-0.49528-3.046383-0.759293-0.081864 3.364631-1.079588 10.137895-3.978614 1.814322l-5.714142 7.696286c-3.579525 1.304715-10.790764-0.298805-7.77815 1.442862-7.16826 14.907525-14.077623 29.264511-20.050662 41.676192 1.593288 10.891048-1.819438 12.869099-7.294127 14.777565l-13.972223 15.886829-25.429159-10.737552c-4.054339-0.797156-5.459339-4.985548-12.671601-7.873318-13.046131-0.854461-24.710798-1.617847-36.176944-2.365884-1.157359-4.869914-1.502213-11.616572-4.318352-17.095353-6.478552-12.605086-7.66661-12.408611-16.548908-0.565888-1.444908-2.39863-3.593851-4.384867-3.803629-6.554276-0.998747-9.937326-7.404644-13.334703-16.078187-15.421224-5.26798-1.270946-10.43056-3.790326-15.081487-6.659677-7.983835-4.941546-15.59314-9.28855-25.477254-10.819416-7.638981-1.170662-14.397918-7.763824-21.667485-11.727089-28.486798-15.487739-57.029878-30.898731-85.535095-46.358841-1.104147-0.595564-2.073218-1.454118-3.01773-3.166109-3.647063-0.926092-10.799974 0.201591-6.352685-5.053086l-7.523347-0.182149c-0.249687 0.014326-6.635117-8.142447-6.885827-8.128121-3.564175 1.981121-6.635117-0.240477-8.79941-5.076622-34.033118-19.657712-67.162656-38.782282-99.606579-57.513902 4.888334-2.015913-28.764114-14.485923-48.288796-23.11751-0.100284-0.128937-0.206708-0.268106-0.317225-0.407276-0.234337-0.296759-0.460488-0.599657-0.705058-0.896416-0.210801 0.191358-0.39295 0.387833-0.594541 0.584308-8.124028-3.65525-13.291724-6.510274-11.175527-7.383154l-9.284457-5.628184c-0.080841-0.163729-0.157589-0.350994-0.249687-0.49528-0.339738-0.580215-0.728594-1.027399-1.213641-1.329275-6.209422-3.848655-12.499685-7.576559-18.827811-11.236925-6.328126-3.666506-12.70537-7.259334-19.091824-10.82044-0.153496-0.085958-0.344854-0.118704-0.546446-0.128937-4.084015-2.635013-30.252001-31.081902-30.593785-29.254278-0.589424 3.186576-18.87079-8.540514-21.014616-7.27366-1.957585 1.157359-6.516414-0.451278-9.038864-2.149966-8.416693-5.671163-16.366759-11.908214-27.575032-7.825222-1.832741 0.667196-4.27435-0.349971-6.979972-0.656963 0.762363-7.830339-1.104147-12.766768-9.894348-13.544481-3.622504-0.322341-6.938016-4.279467-11.265578-7.163143 2.52859-4.366448 4.842285-8.381901 7.351432-12.715603-4.314259-2.796696-7.749498-5.027503-11.381212-7.388271 0.810459-1.396813 1.607614-2.788509 2.413979-4.169973l-0.100284-0.057305 27.929096-48.364521c32.723286-56.678884 65.441455-113.358791 98.274234-170.220846l13.060457-22.618137c-0.124843-0.100284-0.24457-0.210801-0.37453-0.317225 6.347568-10.977006 12.580526-21.869077 18.717294-32.506345-0.468674-0.816598-0.939395-1.622964-1.404999-2.423189l2.600221-5.897314c-3.517103-1.799996-6.088672-2.984984-8.05649-3.493567-1.827625-3.151783-3.698229-6.386454-5.733585-9.888208-2.686179 3.603061-4.7727 5.930059-6.333242 8.578376-10.853186 18.351973-21.442358 36.863582-32.43983 55.129598-4.840238 8.026814-11.001565 15.291265-15.474436 23.485901-1.558495 2.864234-2.570545 6.774287-2.432399 10.181897-0.565888 0.926092-1.1328 1.862417-1.693572 2.787486-0.974188 0.940418-1.799996 2.000564-2.379187 3.215228-0.816598 1.702782-1.698688 3.377934-2.601244 5.04183-5.867638 9.830903-11.624758 19.730367-17.253966 29.700439-2.25025 3.986801-3.089361 9.504468-2.734274 14.349823-1.238201 1.454118-2.51938 2.888793-3.747347 4.361331 1.37737 0.734734 2.730181 1.534959 4.088108 2.328022-0.694825 9.081843-6.961552 17.129122-16.034185 19.383466-3.747347 0.926092-7.480368 4.212952-9.971096 7.398504-3.108804 3.991917-4.605901 9.203616-7.374968 13.526061-10.670014 16.736173-22.472827 32.828686-32.108279 50.134841-7.644097 13.71435-12.772908 28.836769-18.952654 43.369763-1.933025 4.54348-4.510734 9.058306-5.248537 13.827937-0.86367 5.608741-0.37453 11.510148 0.085958 17.248849 1.001817 12.507872-1.577938 26.068725 9.600659 35.875069 12.000312 10.541077 23.352871 21.98471 36.259832 31.264051 13.94357 10.018168 28.960589 18.779715 44.299949 26.51898 8.695033 4.400217 17.288758 13.227256 28.66383 6.275937 5.086855 13.808494 15.660678 17.168008 26.931373 8.54563 1.669012 3.90596 2.293229 9.054213 5.139044 11.089569 3.229554 2.293229 9.207709 0.589424 12.642948 2.744507 7.676843 4.855588 16.274662 9.81146 21.299095 16.9613 7.100722 10.113335 10.732435 22.943548 26.758434 21.533432 0.839111-0.081864 1.895163 0.546446 2.600221 1.1328 8.616238 7.138584 18.223037 13.428847 25.462928 21.767769 5.940292 6.837732 15.071254 6.564509 20.334117 11.44875 7.480368 6.957459 15.041578 9.250688 24.432459 9.393951 2.202155 0.032746 4.677533 1.63115 6.519484 3.123131 10.737552 8.708336 21.3564 17.286712 36.768415 12.479219 1.611707-0.508583 5.052063 0.902556 5.881964 2.39863 5.757121 10.455119 10.608615 8.181333 15.627932-0.469698 0.74292-1.300622 2.403746-2.088568 3.62762-3.114944 0.01842 0.724501 0.01842 1.444908 0.023536 2.174526 5.705955 0.589424 11.396561 1.175779 17.776875 1.837858 2.346441 2.073218 5.124717 6.452969 8.147564 6.630001 2.945075 0.167822 6.126534-3.972475 9.211802-6.222725 2.600221 11.265578 6.395664 22.426779 7.450692 33.840736 1.152243 12.459776 6.055926 21.778003 16.33299 28.284183 8.972349 5.680373 18.400069 10.637268 27.454282 16.198937 16.73208 10.292414 34.925441 2.691295 52.343135 4.111644 9.509585 0.759293 12.973476 1.281179 12.761652 10.762111-0.085958 3.833305-0.494257 8.271384 1.204431 11.356652 1.741667 3.181459 5.633301 6.28003 9.063423 6.942109 1.674129 0.326435 4.931313-4.687766 6.529717-7.77815 1.104147-2.14485 0.595564-5.114484 0.805342-7.719822 1.11438-0.013303 2.217505-0.01842 3.334955-0.023536 0.312108 5.819542 0.470721 11.659551 0.998747 17.46579 0.264013 2.920516 0.282433 6.683213 2.039449 8.478092 4.462638 4.562922 9.307993 9.350972 14.968923 12.071943 24.844851 11.961426 44.329625 33.888831 72.720232 39.199791 0.311085 0.053212 0.599657 0.264013 0.88209 0.422625 6.387477 3.665483 10.983145 1.746784 12.897751-2.99931 7.825222-0.023536 15.061021-1.913583 20.497846 0.404206 6.770194 2.902096 11.069103 1.99647 15.560394-2.64934 11.606339-12.018731 24.508183-23.102161 34.349319-36.431747 10.234085-13.865799 17.148565-30.131251 26.177196-44.938492 4.486174-7.355525 9.289574-15.421224 16.025998-20.335141 11.482519-8.362458 15.434527-20.370956 17.325597-32.453133 3.168156-20.271696 17.862833-35.021631 20.881586-50.639331-1.385557-9.639544-3.046383-16.236799-3.079128-22.839171-0.024559-5.948479 1.453095-11.970636 2.777253-17.838274C844.940858 679.546947 839.317791 677.177993 834.582953 676.803463L834.582953 676.803463 834.582953 676.803463zM525.020548 252.241908c-0.715291 0.344854-2.662643 1.261737-6.040576 2.855024 3.372817 1.943258 5.838985 3.372817 8.511861 4.912893 0.76748-1.933025 1.391696-3.493567 2.379187-5.959735 4.25593 5.786797 7.999185 10.872628 11.746532 15.963577 0.694825-0.36839 1.381463-0.74292 2.072195-1.108241 0.197498-2.312672 0.388856-4.626367 0.629333-7.369851 11.487635 5.383614 22.066575 10.996448 33.150004 15.272845 6.712889 2.591011 14.164604 2.925632 12.883425 13.137205-0.221034 1.760087 1.741667 4.250814 3.329838 5.719258 16.265452 14.912641 36.205597 18.324344 57.274448 17.862833 0.926092-0.019443 1.817392-1.5104 2.965541-2.532683-0.792039-1.411139-1.1328-2.874467-2.048659-3.526313-22.464641-15.959483-44.814672-32.093952-67.609841-47.563272-6.592139-4.467755-14.279215-9.097192-21.8701-9.93221-11.342326-1.248434-20.583804-4.605901-28.457122-12.767791-2.384303-2.465145-6.285147-3.415796-9.058306-5.598508-4.754281-3.742231-9.135054-7.945973-13.713326-11.905144-7.528464-6.510274-14.140045-15.669888-22.88215-18.769482-10.531867-3.733021-23.563672-0.37453-30.352285-13.237489-1.246387-2.365884-4.336772-3.679809-6.29538-5.753027-1.620917-1.717108-2.821255-3.833305-4.207835-5.776563-1.64957 2.058892-3.972475 3.871167-4.807493 6.218632-2.39863 6.736425-5.598508 11.256368-13.06455 12.809747l17.46886 11.962449C476.632491 217.283722 502.814804 231.620241 525.020548 252.241908L525.020548 252.241908 525.020548 252.241908zM948.354136 486.871693c-4.600785-3.329838-7.983835-8.626471-11.203156-13.496385-5.906523-8.939603-8.449439-20.747533-21.951965-22.694885-1.822508-0.258896-4.653997-5.176906-4.206812-7.359618 1.362021-6.688329-2.490727-8.376785-7.278777-10.488889-4.362354-1.927909-8.281617-4.850471-12.489452-7.148817-12.177344-6.675026-24.225751-13.641695-36.724413-19.667945-4.40431-2.1295-10.18599-3.214205-14.94641-2.432399-14.250562 2.350534-22.157649-1.766226-28.122501-14.174837-2.341325-4.898567-7.077186-9.538237-11.884678-12.18246-8.117888-4.475941-17.473977-6.668886-25.746384-10.924817-12.009522-6.179746-23.567765-13.272281-35.226293-20.133549-8.335852-4.9088-16.491603-8.593725-22.499433-0.762363-2.801812-3.320629-4.817726-7.398504-8.069793-9.081843-3.397377-1.7519-8.066723-1.88186-12.034081-1.464351-4.500501 0.470721-8.852622 2.337231-13.267165 3.598968 1.909489 3.199878 3.814886 6.411013 6.102998 10.249435-0.072655 0.118704-0.148379 0.249687-0.215918 0.373507l50.667983 33.015951 31.724539 26.14445 49.434899 21.323655c0.140193 0.075725 0.26913 0.153496 0.407276 0.234337l0.893346 0.528026 52.711526 31.398104c6.031367-4.370541 14.634302-1.688455 20.075221 6.055926 3.214205 4.578272 8.688893 7.68196 13.444197 11.040451 3.367701 2.375094 7.148817 4.207835 10.886955 6.002714 5.738701 2.769067 11.593036 5.287423 18.59245 8.444323 0.215918 9.404184-6.861268 14.236236-15.099906 17.628496 0.460488 5.469572 0.88823 10.526751 1.454118 17.286712-0.427742-0.158612-0.835018-0.326435-1.243317-0.49835-0.196475 4.782933-1.943258 15.276938-13.151531 19.004843-7.480368 12.960173-14.916734 25.272593-21.729907 37.918611-2.62478 4.875031-3.690042 10.570753-5.753027 15.776312-0.330528 0.845251-0.690732 1.684362-1.046842 2.51938-11.150968 8.933463-16.749476 20.400632-16.854876 35.482119-0.042979 5.479805-4.082992 11.313673-7.355525 16.283872-3.820002 5.816472-8.800433 10.850116-15.066137 18.373463 9.504468-1.003863 16.869203 0.11461 21.983687-2.76395 8.104585-4.544503 15.498996-11.04659 21.706371-18.040888 7.845689-8.818853 16.381086-18.093077 20.637016-28.760021 3.964288-9.921977 5.992481-20.674878 7.66661-31.460526 1.63115-2.38021 3.315512-4.726651 5.139044-6.952342 7.287987-8.904811 13.70821-17.71957 13.751189-29.868261 0.005117-2.744507 0.911766-5.771447 2.288113-8.160867 6.439666-11.189853 13.276375-22.148439 19.800975-33.285081C961.919083 501.183653 960.066899 495.345692 948.354136 486.871693L948.354136 486.871693 948.354136 486.871693zM948.354136 486.871693" /></svg>