<svg id="图标" xmlns="http://www.w3.org/2000/svg" viewBox="0 0 25 25"><title>app图标</title><g id="图层_7" data-name="图层 7"><polygon points="8.68 23.09 3.57 23.11 3.57 4.64 7.3 1.63 19.17 1.63 19.17 15.36 20.8 15.36 20.8 0 6.72 0 1.94 3.86 1.94 24.75 8.68 24.72 8.68 23.09" style="fill:#818181"/><rect x="10.35" y="21.18" width="1.87" height="3.82" style="fill:#22609c"/><rect x="13.97" y="19.09" width="1.87" height="5.91" style="fill:#22609c"/><rect x="17.58" y="17.06" width="1.87" height="7.94" style="fill:#22609c"/><rect x="21.19" y="15.36" width="1.87" height="9.64" style="fill:#22609c"/><path d="M8.7,6.39A15.06,15.06,0,0,1,8.11,9.2V16c-.18.28-.35.28-.52,0V10.23a6.12,6.12,0,0,1-.85,1.53c-.28.12-.43,0-.43-.25A11.58,11.58,0,0,0,8.19,6.39Q8.45,6,8.7,6.39Zm2.9,0c.17-.23.35-.23.52,0L12,8.44h4.18q.43.26,0,.51H12A10.84,10.84,0,0,1,8.87,16.2c-.28,0-.37-.14-.25-.42A10.83,10.83,0,0,0,11.52,9H9q-.42-.25,0-.51h2.48Zm.94,3.07q.26-.42.51,0v5.38c0,.45.2.65.6.59h1.11c.74.12,1.08-.51,1-1.87q.26-.51.51,0c.05,1.65-.4,2.44-1.37,2.39H13.57c-.69.05-1-.32-1-1.11Zm.51-3.07A19.14,19.14,0,0,1,15.27,7.5c.12.28,0,.42-.25.42a19.79,19.79,0,0,0-2.22-1C12.68,6.56,12.77,6.39,13.05,6.39Z" style="fill:#818181;stroke:#818181;stroke-miterlimit:10;stroke-width:0.75px"/></g></svg>