<?xml version="1.0" standalone="no"?><!DOCTYPE svg PUBLIC "-//W3C//DTD SVG 1.1//EN" "http://www.w3.org/Graphics/SVG/1.1/DTD/svg11.dtd"><svg t="1550798153354" class="icon" style="" viewBox="0 0 1024 1024" version="1.1" xmlns="http://www.w3.org/2000/svg" p-id="2825" xmlns:xlink="http://www.w3.org/1999/xlink" width="400" height="400"><defs><style type="text/css"></style></defs><path d="M171.6 391.272v351.712c0 25.336 25.704 45.872 57.376 45.872h114.768v76.456c0 8.456 11.832 16.88 22.408 16.88 0.376 0 0.512 0.016 0.576 0.048 6.136 0.712 15.104-2.832 19.728-6.504l108.656-86.888h269.424c31.68 0 57.384-20.536 57.384-45.872V391.272c0-25.336-25.704-45.872-57.384-45.872H228.976c-31.672 0-57.376 20.536-57.376 45.872z m38.256 15.296c0-16.872 17.128-30.576 38.24-30.576h497.312c21.112 0 38.24 13.696 38.24 30.576v321.128c0 16.88-17.128 30.576-38.24 30.576h-265.68c-1.552 0.68-5.232 3.824-6.544 4.856l-91.176 72.912v-62.48c0-8.448-8.552-15.296-19.136-15.296H248.104c-21.112 0-38.24-13.696-38.24-30.576v-321.12z" p-id="2826"></path><path d="M872.528 217.048H336.976c-31.672 0-57.376 20.536-57.376 45.872v44.72a67.896 67.896 0 0 1 16.088-1.992h22.168v-27.432c0-16.872 17.128-30.576 38.24-30.576h497.312c21.112 0 38.24 13.696 38.24 30.576v321.128c0 16.816-17 30.456-38 30.56v30.592h18.872c31.68 0 57.384-20.536 57.384-45.872V262.92c0.008-25.336-25.696-45.872-57.376-45.872zM800.192 868.592c-0.216 0.048-0.464 0.032-0.688 0.064-0.352 0.16 2.616 0.568 0.688-0.064z" p-id="2827"></path><path d="M361.208 565.336m-33.88 0a33.88 33.88 0 1 0 67.76 0 33.88 33.88 0 1 0-67.76 0Z" p-id="2828"></path><path d="M496.768 565.336m-33.88 0a33.88 33.88 0 1 0 67.76 0 33.88 33.88 0 1 0-67.76 0Z" p-id="2829"></path><path d="M632.296 565.336m-33.88 0a33.88 33.88 0 1 0 67.76 0 33.88 33.88 0 1 0-67.76 0Z" p-id="2830"></path></svg>